<?xml version="1.0" encoding="utf-8"?>
<!-- Generator: Adobe Illustrator 24.0.0, SVG Export Plug-In . SVG Version: 6.00 Build 0)  -->
<svg version="1.1" id="Layer_1" xmlns="http://www.w3.org/2000/svg" xmlns:xlink="http://www.w3.org/1999/xlink" x="0px" y="0px"
	 viewBox="0 0 42 42" style="enable-background:new 0 0 42 42;" xml:space="preserve">
<style type="text/css">
	.st0{display:none;}
	.st1{display:inline;fill:url(#SVGID_1_);}
	.st2{display:inline;}
	.st3{fill:#9274B3;}
	.st4{fill:#805FA8;}
	.st5{fill:#613A89;}
	.st6{fill:#FFFFFF;}
	.st7{fill:#86C440;}
	.st8{fill:url(#SVGID_2_);}
	.st9{fill:url(#SVGID_3_);}
	.st10{fill:url(#SVGID_4_);}
	.st11{fill:#2C7FC1;}
	.st12{fill:#659AD2;}
	.st13{fill:url(#SVGID_5_);}
	.st14{fill:url(#SVGID_6_);}
	.st15{fill:url(#SVGID_7_);}
	.st16{fill:#75CEEA;}
	.st17{display:inline;fill:url(#SVGID_8_);}
</style>
<g id="Game_Servers_hosting" class="st0">
	
		<linearGradient id="SVGID_1_" gradientUnits="userSpaceOnUse" x1="21.4" y1="38.4" x2="21.4" y2="10.2" gradientTransform="matrix(1 0 0 -1 0 42)">
		<stop  offset="0" style="stop-color:#659AD2"/>
		<stop  offset="0.2179" style="stop-color:#5D96CF"/>
		<stop  offset="0.5514" style="stop-color:#488BC9"/>
		<stop  offset="0.8401" style="stop-color:#307FC1"/>
	</linearGradient>
	<path class="st1" d="M33,14.5c-0.2-6-5.2-10.9-11.3-10.9c-5.1,0-9.4,3.4-10.8,8c-5.3,0.3-9.5,4.7-9.5,10.1
		c0,5.6,4.5,10.1,10.1,10.1c4,0,17.4,0,21.2,0c4.8,0,8.7-3.9,8.7-8.7C41.4,18.4,37.6,14.6,33,14.5z"/>
	<g class="st2">
		<polygon class="st3" points="18.5,35.9 28.8,32 28.8,21.7 18.5,18.5 		"/>
		<path class="st4" d="M8.8,20.1v13.4l9.7,2.4V18.5L8.8,20.1z"/>
		<path class="st5" d="M8.8,20.1v13.4l9.7,2.4V18.5L8.8,20.1z M9.8,21l3-0.4v12.8l-3-0.7V21z M17.5,34.5L14,33.7V20.4l3.5-0.5V34.5z
			"/>
	</g>
	<g class="st2">
		<path class="st6" d="M22.5,34.3l1.8-4.3l0.3-0.8l1.9-0.3l2,0.4h2.3l0.8-0.4l1.9,0.4l0.7,0.9c0,0,1.6,3.6,1.7,5.9
			c0,0-0.4,1.6-1.5,1.6c-0.8,0-2.4-2.4-3.5-2.4c-1.2,0-2.5,0-3.7,0c-1.1,0-3,2.7-3.8,2.6C21.8,37.8,22.5,34.3,22.5,34.3z"/>
		<g>
			<path class="st7" d="M29.2,30.8c-0.3,0-0.6,0.3-0.6,0.6c0,0.3,0.3,0.6,0.6,0.6c0.3,0,0.6-0.3,0.6-0.6
				C29.8,31,29.5,30.8,29.2,30.8z"/>
			<path class="st7" d="M36.4,35.4c0-0.2-0.1-0.4-0.1-0.6c-0.1-0.5-0.2-0.9-0.4-1.4c-0.2-0.4-0.3-0.9-0.5-1.3
				c-0.1-0.3-0.3-0.7-0.4-1c-0.1-0.3-0.3-0.7-0.5-1c-0.1-0.1-0.1-0.2-0.2-0.3c-0.1-0.1-0.1-0.2-0.2-0.2c0-0.1,0-0.2,0-0.3
				c0-0.1-0.1-0.2-0.2-0.3c-0.1,0-0.1-0.1-0.3-0.1c-0.1,0-0.2-0.1-0.4-0.1c-0.1,0-0.3-0.1-0.4-0.1c-0.1,0-0.2-0.1-0.3-0.1
				c-0.2,0-0.4-0.1-0.5-0.1c-0.2,0-0.4,0-0.5,0s-0.2,0-0.3,0c-0.1,0-0.2,0.1-0.3,0.1c-0.1,0-0.2,0.1-0.2,0.1
				c-0.1,0.1-0.2,0.1-0.3,0.2h-2.6c-0.1-0.1-0.2-0.1-0.3-0.2c-0.1-0.1-0.2-0.1-0.3-0.2l0,0c-0.1,0-0.1-0.1-0.2-0.1s-0.2,0-0.2,0
				c-0.2,0-0.4,0-0.5,0c-0.2,0-0.4,0-0.5,0.1c-0.1,0-0.2,0-0.3,0.1c-0.1,0-0.3,0.1-0.4,0.1s-0.3,0.1-0.4,0.1s-0.2,0.1-0.3,0.1
				c-0.1,0-0.1,0.1-0.1,0.1l-0.1,0.1c0,0,0,0.1,0,0.2s0,0.1,0,0.2c-0.1,0.1-0.2,0.1-0.2,0.2c-0.1,0.1-0.1,0.2-0.2,0.3
				c-0.1,0.2-0.2,0.4-0.3,0.7c-0.1,0.2-0.2,0.5-0.3,0.8c-0.1,0.3-0.2,0.6-0.3,0.8c-0.1,0.3-0.2,0.6-0.3,0.9
				c-0.1,0.3-0.2,0.5-0.3,0.8c-0.1,0.3-0.1,0.5-0.2,0.7c0,0.2-0.1,0.4-0.1,0.6c0,0.2,0,0.4,0,0.6c0,0.3,0,0.6,0.1,0.8
				c0.1,0.3,0.2,0.5,0.3,0.8c0.1,0.1,0.2,0.2,0.3,0.3c0.1,0.1,0.2,0.2,0.3,0.3c0.1,0.1,0.3,0.1,0.4,0.2c0.1,0.1,0.3,0.1,0.4,0.1
				s0.3-0.1,0.5-0.2c0.2-0.1,0.4-0.3,0.5-0.5c0.2-0.2,0.3-0.4,0.5-0.5c0.2-0.2,0.3-0.3,0.4-0.4c0.1-0.1,0.2-0.2,0.3-0.4
				c0.1-0.1,0.2-0.3,0.4-0.4l0.2-0.1c0.1-0.1,0.2-0.1,0.3-0.1c0.1,0,0.2-0.1,0.3-0.1c0.1,0,0.2,0,0.3,0c0.1,0,0.2,0,0.3,0h1.4h1.4
				c0.1,0,0.2,0,0.3,0c0.1,0,0.2,0,0.3,0c0.1,0,0.2,0,0.3,0.1c0.1,0,0.2,0.1,0.3,0.1L32,36c0.1,0.1,0.3,0.2,0.4,0.3s0.2,0.3,0.3,0.4
				c0.1,0.1,0.2,0.3,0.4,0.4c0.2,0.2,0.3,0.4,0.5,0.5c0.2,0.2,0.4,0.3,0.5,0.5c0.2,0.1,0.3,0.2,0.5,0.2c0.1,0,0.3,0,0.4-0.1
				c0.1-0.1,0.3-0.1,0.4-0.2c0.1-0.1,0.2-0.2,0.3-0.3s0.2-0.2,0.3-0.3c0.2-0.2,0.3-0.5,0.3-0.8c0.1-0.3,0.1-0.5,0.1-0.8
				C36.4,35.8,36.4,35.6,36.4,35.4z M34.7,37.3c-0.4,0-1.9-1.8-2.2-2.1c-0.2-0.2-0.6-0.4-0.7-0.4s-0.3-0.1-0.4-0.1s-0.3,0-0.4,0
				c-0.2,0-0.3,0-0.5,0h-1.4h-1.3c-0.2,0-0.3,0-0.5,0s-0.3,0-0.4,0s-0.3,0.1-0.4,0.1S26,35,25.8,35.2c-0.3,0.3-1.8,2.1-2.2,2.1
				c0,0-0.8-0.3-0.7-1.9c0.1-1.1,1-3,1.2-3.5c0.1-0.2,0.2-0.5,0.3-0.7c0.1-0.2,0.2-0.5,0.3-0.7c0-0.1,0.1-0.1,0.1-0.2
				c0.1,0,0.1-0.1,0.2-0.1s0.1-0.1,0.1-0.1s0.1-0.1,0.1-0.2v-0.1c0.3-0.1,0.5-0.2,0.8-0.2c0.3-0.1,0.5-0.1,0.8-0.1c0,0,0,0,0.1,0H27
				c0.2,0.1,0.3,0.2,0.4,0.2c0.1,0.1,0.2,0.1,0.2,0.1c0.1,0,0.2,0,0.3,0c0.1,0,0.2,0,0.4,0H29h1c0.2,0,0.3,0,0.4,0s0.2,0,0.3,0
				c0.1,0,0.2-0.1,0.2-0.1c0.1-0.1,0.2-0.1,0.4-0.2c0,0,0,0,0.1,0h0.1c0.3,0,0.5,0,0.8,0.1s0.5,0.1,0.8,0.2V30c0,0.1,0,0.2,0.1,0.2
				l0.1,0.1c0.1,0,0.1,0.1,0.2,0.1c0.1,0,0.1,0.1,0.1,0.2c0.1,0.2,0.2,0.4,0.3,0.7c0.1,0.2,0.2,0.5,0.3,0.7c0.2,0.4,1.2,2.3,1.2,3.5
				C35.5,37,34.7,37.3,34.7,37.3z"/>
		</g>
	</g>
</g>
<g id="Game_Analytics" class="st0">
	<g class="st2">
		<g>
			
				<linearGradient id="SVGID_2_" gradientUnits="userSpaceOnUse" x1="20.95" y1="37.8276" x2="20.95" y2="9.7594" gradientTransform="matrix(1 0 0 -1 0 42)">
				<stop  offset="0" style="stop-color:#659AD2"/>
				<stop  offset="0.289" style="stop-color:#6298D1"/>
				<stop  offset="0.4976" style="stop-color:#5993CE"/>
				<stop  offset="0.6803" style="stop-color:#498BC9"/>
				<stop  offset="0.8283" style="stop-color:#3680C3"/>
			</linearGradient>
			<path class="st8" d="M39.9,19.2h-14c-0.1,1.1-1.1,1.9-2.2,1.9c-1.2,0-2.2-1-2.2-2.2c0-0.4,0.1-0.7,0.3-1l-3.3-3.3
				c-0.4,0.2-0.8,0.4-1.2,0.4c-0.4,0-0.8-0.1-1.1-0.3l-6.5,6.5c0.2,0.3,0.3,0.7,0.3,1.1c0,1.2-1,2.2-2.2,2.2c-1.1,0-2-0.8-2.2-1.9
				H0.9c0.3,5.3,4.7,9.5,10.1,9.5c4,0,17.4,0,21.3,0c4.8,0,8.7-3.9,8.7-8.7C41,21.9,40.6,20.5,39.9,19.2z"/>
			
				<linearGradient id="SVGID_3_" gradientUnits="userSpaceOnUse" x1="20" y1="37.8276" x2="20" y2="9.7594" gradientTransform="matrix(1 0 0 -1 0 42)">
				<stop  offset="0" style="stop-color:#659AD2"/>
				<stop  offset="0.289" style="stop-color:#6298D1"/>
				<stop  offset="0.4976" style="stop-color:#5993CE"/>
				<stop  offset="0.6803" style="stop-color:#498BC9"/>
				<stop  offset="0.8283" style="stop-color:#3680C3"/>
			</linearGradient>
			<path class="st9" d="M7.8,20.1c0.4,0,0.8,0.1,1.1,0.3l6.5-6.5c-0.2-0.3-0.3-0.7-0.3-1.1c0-1.2,1-2.2,2.2-2.2s2.2,1,2.2,2.2
				c0,0.4-0.1,0.7-0.3,1l3.3,3.3c0.3-0.2,0.8-0.4,1.2-0.4c0.9,0,1.7,0.6,2.1,1.4h13.3c-1.5-2-3.9-3.2-6.6-3.3
				c-0.2-6-5.2-10.9-11.3-10.9c-5.1,0-9.4,3.4-10.8,8.1c-5.1,0.3-9.3,4.4-9.5,9.5h4.8C6.1,20.7,6.9,20.1,7.8,20.1z"/>
		</g>
		<path class="st6" d="M10.1,33.8l3.1-7.2l0.6-1.4l3.2-0.6l3.3,0.7h3.8l1.3-0.7l3.3,0.8l1.2,1.6c0,0,2.6,6.1,2.9,9.9
			c0,0.1-0.7,2.8-2.6,2.8c-1.4,0-4-4.1-5.9-4.1c-2,0-4.2,0-6.2,0c-1.9,0-5,4.6-6.4,4.5C8.9,39.6,10.1,33.8,10.1,33.8z"/>
		<path class="st7" d="M29.7,25.7c0.1,0.1,0.3,0.2,0.4,0.4c0.1,0.1,0.2,0.3,0.3,0.4c0.3,0.5,0.5,1.1,0.8,1.7
			c0.2,0.6,0.5,1.1,0.7,1.7c0.3,0.7,0.6,1.5,0.8,2.2c0.3,0.8,0.5,1.5,0.6,2.3c0.1,0.4,0.1,0.7,0.2,1.1c0,0.4,0.1,0.7,0.1,1.1
			c0,0.5-0.1,0.9-0.2,1.4c-0.1,0.5-0.3,0.9-0.5,1.3c-0.1,0.2-0.3,0.4-0.4,0.5c-0.2,0.2-0.4,0.3-0.6,0.5c-0.2,0.1-0.4,0.2-0.7,0.3
			c-0.2,0.1-0.5,0.1-0.7,0.1s-0.5-0.1-0.8-0.3s-0.6-0.5-0.9-0.8s-0.6-0.6-0.9-0.9c-0.3-0.3-0.5-0.6-0.6-0.7
			c-0.2-0.2-0.4-0.4-0.6-0.7c-0.2-0.2-0.4-0.4-0.6-0.6l-0.3-0.2c-0.2-0.1-0.3-0.2-0.5-0.3s-0.4-0.1-0.6-0.1s-0.4,0-0.6,0
			s-0.4,0-0.6,0h-2.3H19c-0.2,0-0.4,0-0.6,0s-0.4,0-0.6,0s-0.4,0.1-0.6,0.1c-0.2,0.1-0.3,0.1-0.5,0.3l-0.3,0.2
			c-0.2,0.2-0.4,0.4-0.6,0.6c-0.2,0.2-0.4,0.5-0.6,0.7c-0.2,0.2-0.4,0.4-0.6,0.7c-0.3,0.3-0.5,0.6-0.9,0.9c-0.3,0.3-0.6,0.6-0.9,0.8
			c-0.3,0.2-0.6,0.3-0.8,0.3s-0.5,0-0.7-0.1s-0.5-0.2-0.7-0.3S10.2,40,10,39.8c-0.2-0.2-0.3-0.4-0.4-0.5c-0.3-0.4-0.4-0.8-0.5-1.3
			C9,37.5,9,37.1,9,36.6c0-0.4,0-0.7,0.1-1.1c0-0.4,0.1-0.7,0.2-1.1c0.1-0.4,0.2-0.8,0.3-1.2s0.3-0.9,0.4-1.4s0.3-1,0.5-1.4
			c0.2-0.5,0.4-1,0.6-1.4c0.2-0.5,0.4-0.9,0.6-1.3c0.2-0.4,0.4-0.8,0.6-1.1c0.1-0.2,0.2-0.3,0.3-0.4s0.2-0.3,0.4-0.4
			c0-0.1,0-0.2,0-0.3c0-0.1,0-0.2,0-0.3c0-0.1,0.1-0.2,0.1-0.2s0.1-0.1,0.2-0.2c0.1-0.1,0.2-0.1,0.4-0.2s0.4-0.1,0.6-0.2
			c0.2-0.1,0.4-0.1,0.6-0.2c0.2-0.1,0.4-0.1,0.5-0.1C15.7,24,16,24,16.3,24s0.6,0,0.9,0c0.1,0,0.3,0,0.4,0s0.3,0,0.4,0.1l0,0
			c0.2,0.1,0.4,0.2,0.5,0.3c0.2,0.1,0.4,0.2,0.5,0.3h4.3c0.2-0.1,0.3-0.2,0.5-0.3c0.1-0.1,0.3-0.2,0.4-0.2c0.1-0.1,0.3-0.1,0.4-0.2
			c0.2,0,0.3-0.1,0.6-0.1c0.3,0,0.6,0,0.9,0S26.7,24,27,24c0.1,0,0.3,0.1,0.5,0.1c0.2,0.1,0.4,0.1,0.6,0.2s0.4,0.1,0.6,0.2
			s0.3,0.1,0.4,0.2c0.2,0.1,0.3,0.3,0.3,0.4C29.7,25.3,29.7,25.5,29.7,25.7z M30.5,39.2c0.3-0.1,0.5-0.2,0.7-0.4s0.3-0.4,0.5-0.6
			c0.1-0.2,0.2-0.5,0.2-0.8s0.1-0.5,0.1-0.8s0-0.6,0-0.9c0-0.3-0.1-0.6-0.1-0.9c-0.2-0.8-0.4-1.7-0.7-2.5c-0.3-0.8-0.6-1.6-1-2.4
			c-0.2-0.4-0.4-0.9-0.5-1.3c-0.2-0.4-0.4-0.9-0.6-1.3C29,27.1,28.9,27,28.8,27c-0.1-0.1-0.2-0.1-0.3-0.2c-0.1-0.1-0.2-0.2-0.2-0.2
			c-0.1-0.1-0.1-0.2-0.1-0.4V26c-0.5-0.2-0.9-0.3-1.4-0.4s-0.9-0.1-1.4-0.1h-0.1h-0.1c-0.3,0.2-0.5,0.3-0.7,0.4
			c-0.2,0-0.4,0.1-0.5,0.1s-0.3,0.1-0.5,0.1s-0.4,0-0.7,0h-3c-0.3,0-0.6,0-0.7,0s-0.3,0-0.5-0.1c-0.1,0-0.3-0.1-0.4-0.2
			c-0.2-0.1-0.4-0.2-0.7-0.4h-0.1h-0.1c-0.5,0-1,0-1.4,0.1c-0.5,0.1-0.9,0.2-1.4,0.4c0,0.2,0,0.4-0.1,0.5c0,0.1-0.2,0.3-0.4,0.4
			c-0.1,0-0.2,0.1-0.2,0.2c-0.1,0.1-0.1,0.2-0.2,0.2c-0.2,0.4-0.4,0.8-0.6,1.3c-0.2,0.4-0.4,0.9-0.5,1.3c-0.3,0.8-0.6,1.6-1,2.4
			c-0.3,0.8-0.5,1.7-0.7,2.5c-0.1,0.3-0.1,0.6-0.1,0.9c0,0.3,0,0.6,0,0.9c0,0.3,0,0.5,0.1,0.8c0,0.3,0.1,0.5,0.2,0.7
			c0.1,0.2,0.3,0.4,0.4,0.6c0.2,0.2,0.4,0.3,0.7,0.4c0.1-0.1,0.3-0.2,0.5-0.4s0.4-0.4,0.6-0.6c0.2-0.2,0.4-0.5,0.6-0.7
			c0.2-0.2,0.3-0.4,0.5-0.5c0.1-0.1,0.2-0.2,0.3-0.4s0.3-0.3,0.4-0.5c0.1-0.2,0.3-0.3,0.4-0.4c0.1-0.1,0.3-0.2,0.4-0.3
			c0,0,0.1,0,0.1-0.1c0,0,0.1,0,0.1-0.1c0.2-0.2,0.5-0.3,0.7-0.4c0.2-0.1,0.5-0.2,0.8-0.2s0.5-0.1,0.8-0.1s0.5,0,0.8,0h2.3h2.3
			c0.3,0,0.5,0,0.8,0s0.5,0,0.8,0.1c0.3,0,0.5,0.1,0.8,0.2c0.2,0.1,0.5,0.2,0.7,0.4c0,0,0.1,0,0.1,0.1c0,0,0.1,0,0.1,0.1
			c0.1,0.1,0.2,0.2,0.4,0.3c0.1,0.1,0.3,0.3,0.4,0.4c0.1,0.2,0.3,0.3,0.4,0.5s0.2,0.3,0.3,0.4c0.1,0.1,0.3,0.3,0.5,0.5
			s0.4,0.4,0.6,0.7c0.2,0.2,0.4,0.4,0.6,0.6C30.2,38.9,30.4,39.1,30.5,39.2z"/>
		<g>
			<g>
				<g>
					<g>
						<circle class="st7" cx="23.8" cy="18.9" r="1"/>
						<circle class="st7" cx="17.3" cy="12.8" r="1"/>
						<circle class="st7" cx="7.8" cy="22.3" r="1"/>
					</g>
				</g>
				<g>
					<circle class="st7" cx="21.3" cy="28.4" r="1"/>
				</g>
			</g>
		</g>
	</g>
</g>
<g id="AI_in_Games" class="st0">
	<g class="st2">
		
			<linearGradient id="SVGID_4_" gradientUnits="userSpaceOnUse" x1="21.1" y1="41" x2="21.1" y2="28.4406" gradientTransform="matrix(1 0 0 -1 0 42)">
			<stop  offset="0" style="stop-color:#659AD2"/>
			<stop  offset="0.2179" style="stop-color:#5D96CF"/>
			<stop  offset="0.5514" style="stop-color:#488BC9"/>
			<stop  offset="0.8401" style="stop-color:#307FC1"/>
		</linearGradient>
		<rect x="16.8" y="1" class="st10" width="8.6" height="12.6"/>
		<rect x="6.9" y="26.8" class="st11" width="28.2" height="8.6"/>
		<polygon class="st12" points="6.8,35.4 6,26.1 16.8,13.6 25.3,13.6 		"/>
		<g>
			<polygon class="st12" points="36,26.1 28,16.8 23.7,21.9 35.2,35.4 			"/>
		</g>
	</g>
	<g class="st2">
		<path class="st6" d="M13.8,36.3l2.1-4.9l0.4-1l2.2-0.4l2.2,0.5h2.6l0.9-0.5l2.2,0.5l0.8,1.1c0,0,1.8,4.1,2,6.8
			c0,0-0.5,1.9-1.7,1.9c-1,0-2.7-2.8-4-2.8c-1.4,0-2.9,0-4.2,0c-1.3,0-3.4,3.1-4.3,3C12.9,40.3,13.8,36.3,13.8,36.3z"/>
		<g>
			<path class="st7" d="M21.4,32.2c-0.4,0-0.7,0.3-0.7,0.7s0.3,0.7,0.7,0.7c0.4,0,0.7-0.3,0.7-0.7S21.8,32.2,21.4,32.2z"/>
			<path class="st7" d="M29.7,37.5c0-0.2-0.1-0.5-0.1-0.7c-0.1-0.5-0.2-1.1-0.4-1.6c-0.2-0.5-0.4-1-0.6-1.5
				c-0.2-0.4-0.3-0.8-0.5-1.2s-0.3-0.8-0.5-1.1c-0.1-0.1-0.1-0.2-0.2-0.3c-0.1-0.1-0.2-0.2-0.3-0.3c0-0.1,0-0.3,0-0.4
				s-0.1-0.2-0.2-0.3c-0.1,0-0.2-0.1-0.3-0.1c-0.1,0-0.3-0.1-0.4-0.1s-0.3-0.1-0.4-0.1s-0.3-0.1-0.3-0.1c-0.2,0-0.4-0.1-0.6-0.1
				s-0.4,0-0.6,0c-0.1,0-0.3,0-0.4,0s-0.2,0.1-0.3,0.1c-0.1,0-0.2,0.1-0.3,0.2C23.2,30,23.1,30,23,30.1h-3c-0.1-0.1-0.2-0.1-0.4-0.2
				c-0.1-0.1-0.2-0.1-0.4-0.2l0,0c-0.1,0-0.2-0.1-0.3-0.1c-0.1,0-0.2,0-0.3,0c-0.2,0-0.4,0-0.6,0s-0.4,0.1-0.6,0.1
				c-0.1,0-0.2,0-0.3,0.1c-0.1,0-0.3,0.1-0.4,0.1S16.4,30,16.3,30s-0.2,0.1-0.3,0.1c-0.1,0-0.1,0.1-0.2,0.1c0,0.1-0.1,0.1-0.1,0.2
				s0,0.1,0,0.2s0,0.1,0,0.2c-0.1,0.1-0.2,0.2-0.3,0.3c-0.1,0.1-0.1,0.2-0.2,0.3c-0.1,0.2-0.2,0.5-0.4,0.8c-0.1,0.3-0.3,0.6-0.4,0.9
				c-0.1,0.3-0.3,0.6-0.4,1c-0.1,0.3-0.2,0.7-0.4,1c-0.1,0.3-0.2,0.6-0.3,0.9c-0.1,0.3-0.1,0.6-0.2,0.8c0,0.2-0.1,0.5-0.1,0.7
				s0,0.5,0,0.7c0,0.3,0,0.6,0.1,0.9c0.1,0.3,0.2,0.6,0.4,0.9c0.1,0.1,0.2,0.2,0.3,0.4c0.1,0.1,0.3,0.2,0.4,0.3
				c0.1,0.1,0.3,0.2,0.5,0.2C14.8,41,15,41,15.1,41c0.2,0,0.4-0.1,0.6-0.2c0.2-0.1,0.4-0.3,0.6-0.5s0.4-0.4,0.6-0.6
				c0.2-0.2,0.3-0.4,0.4-0.5s0.2-0.3,0.4-0.4c0.1-0.2,0.3-0.3,0.4-0.4l0.2-0.1c0.1-0.1,0.2-0.1,0.3-0.2c0.1,0,0.2-0.1,0.4-0.1
				c0.1,0,0.3,0,0.4,0s0.3,0,0.4,0h1.6H23c0.1,0,0.3,0,0.4,0s0.3,0,0.4,0s0.3,0,0.4,0.1c0.1,0,0.2,0.1,0.3,0.2l0.2,0.1
				c0.1,0.1,0.3,0.2,0.4,0.4s0.3,0.3,0.4,0.4c0.1,0.1,0.3,0.3,0.4,0.5c0.2,0.2,0.4,0.4,0.6,0.6c0.2,0.2,0.4,0.4,0.6,0.5
				s0.4,0.2,0.6,0.2s0.3,0,0.5-0.1s0.3-0.1,0.5-0.2c0.1-0.1,0.3-0.2,0.4-0.3s0.2-0.2,0.3-0.4c0.2-0.3,0.3-0.6,0.4-0.9
				c0.1-0.3,0.1-0.6,0.1-0.9C29.8,37.9,29.7,37.7,29.7,37.5z M27.8,39.7c-0.4,0-2.2-2-2.5-2.4c-0.3-0.3-0.7-0.5-0.8-0.5
				c-0.2-0.1-0.3-0.1-0.5-0.1s-0.3,0-0.5-0.1c-0.2,0-0.3,0-0.5,0h-1.6h-1.5c-0.2,0-0.3,0-0.5,0s-0.3,0-0.5,0.1
				c-0.2,0-0.3,0.1-0.5,0.1c-0.2,0.1-0.6,0.2-0.8,0.5c-0.3,0.3-2.1,2.4-2.5,2.4c0,0-0.9-0.3-0.8-2.2c0.1-1.3,1.2-3.5,1.4-4
				c0.1-0.3,0.2-0.5,0.3-0.8s0.2-0.5,0.4-0.8c0-0.1,0.1-0.1,0.2-0.2c0.1,0,0.1-0.1,0.2-0.1s0.1-0.1,0.2-0.2c0-0.1,0.1-0.1,0.1-0.2
				v-0.1c0.3-0.1,0.6-0.2,0.9-0.2c0.3-0.1,0.6-0.1,0.9-0.1H19h0.1c0.2,0.1,0.3,0.2,0.4,0.3c0.1,0.1,0.2,0.1,0.3,0.1
				c0.1,0,0.2,0,0.3,0.1c0.1,0,0.3,0,0.5,0h0.8h1.2c0.2,0,0.4,0,0.5,0s0.2,0,0.3-0.1c0.1,0,0.2-0.1,0.3-0.1c0.1-0.1,0.2-0.1,0.4-0.3
				h0.1h0.1c0.3,0,0.6,0,0.9,0.1s0.6,0.1,0.9,0.2v0.1c0,0.1,0,0.2,0.1,0.2c0,0.1,0.1,0.1,0.2,0.2c0.1,0,0.1,0.1,0.2,0.1
				s0.1,0.1,0.2,0.2c0.1,0.3,0.3,0.5,0.4,0.8s0.2,0.5,0.3,0.8c0.2,0.5,1.3,2.7,1.4,4C28.6,39.4,27.8,39.7,27.8,39.7z"/>
		</g>
	</g>
</g>
<g id="Mutliplayer_Servers" class="st0">
	<g class="st2">
		<g>
			<polygon class="st3" points="9,28.4 17.5,25.1 17.5,16.7 9,14.1 			"/>
			<path class="st4" d="M1,15.4v11l8,2V14.1L1,15.4z"/>
			<path class="st5" d="M1,15.4v11l8,2V14.1L1,15.4z M1.8,16.1l2.4-0.4v10.6l-2.4-0.6C1.8,25.7,1.8,16.1,1.8,16.1z M8.1,27.2
				l-2.9-0.7V15.6l2.9-0.4V27.2z"/>
		</g>
		<g>
			<path class="st7" d="M26,13.9c-0.8,0.1-1.6,0.3-2.3,0.6s-1.3,0.8-1.9,1.3c-0.6,0.5-1,1.2-1.4,1.9s-0.6,1.5-0.7,2.3h-4v-0.1
				c-0.1-0.3-0.3-0.5-0.5-0.7s-0.5-0.4-0.7-0.5c-0.3-0.1-0.6-0.2-0.9-0.2s-0.6,0.1-0.9,0.2c-0.3,0.1-0.5,0.3-0.7,0.5
				s-0.4,0.5-0.5,0.7s-0.2,0.6-0.2,0.9s0.1,0.6,0.2,0.9c0.1,0.3,0.3,0.5,0.5,0.7s0.5,0.4,0.7,0.5c0.3,0.1,0.6,0.2,0.9,0.2
				s0.6-0.1,0.9-0.2c0.3-0.1,0.5-0.3,0.7-0.5s0.4-0.5,0.5-0.7v-0.1h4c0.1,0.8,0.3,1.6,0.7,2.3s0.8,1.3,1.4,1.9
				c0.5,0.5,1.2,1,1.9,1.3c0.7,0.3,1.5,0.6,2.3,0.6v-1.6c-0.7-0.1-1.3-0.3-1.9-0.6c-0.6-0.3-1.1-0.7-1.5-1.2s-0.8-1-1-1.6
				s-0.4-1.3-0.4-1.9s0.1-1.3,0.4-1.9c0.2-0.6,0.6-1.2,1-1.6c0.4-0.5,0.9-0.9,1.5-1.2c0.6-0.3,1.2-0.5,1.9-0.6V13.9z"/>
			<circle class="st6" cx="13.6" cy="20.9" r="1"/>
		</g>
		<g>
			<polygon class="st3" points="32.5,36.7 41,33.4 41,25 32.5,22.4 			"/>
			<path class="st4" d="M24.5,23.7v11l8,2V22.4L24.5,23.7z"/>
			<path class="st5" d="M24.5,23.7v11l8,2V22.4L24.5,23.7z M25.4,24.4l2.4-0.4v10.6L25.4,34V24.4z M31.7,35.5l-2.9-0.7V23.9l2.9-0.4
				V35.5z"/>
		</g>
		<g>
			<polygon class="st3" points="32.5,19.9 41,16.6 41,8.2 32.5,5.6 			"/>
			<path class="st4" d="M24.5,6.9v11l8,2V5.6L24.5,6.9z"/>
			<path class="st5" d="M24.5,6.9v11l8,2V5.6L24.5,6.9z M25.4,7.6l2.4-0.4v10.6l-2.4-0.6V7.6z M31.7,18.7L28.8,18V7.1l2.9-0.4
				C31.7,6.7,31.7,18.7,31.7,18.7z"/>
		</g>
	</g>
</g>
<g id="Leaderboards" class="st0">
	<g class="st2">
		
			<linearGradient id="SVGID_5_" gradientUnits="userSpaceOnUse" x1="8.2" y1="16.4656" x2="8.2" y2="2.2799" gradientTransform="matrix(1 0 0 -1 0 42)">
			<stop  offset="0" style="stop-color:#FFFFFF"/>
			<stop  offset="1" style="stop-color:#75CEEA"/>
		</linearGradient>
		<path class="st13" d="M15.4,36.4c0,0.5-0.1,0.9-0.4,1.2c-0.3,0.3-0.6,0.6-1,0.9c-0.4,0.2-0.9,0.5-1.4,0.6
			c-0.5,0.2-1.1,0.3-1.6,0.4c-0.5,0.1-1,0.2-1.5,0.2s-0.9,0.1-1.2,0.1s-0.7,0-1.2-0.1c-0.5,0-1-0.1-1.5-0.2
			c-0.5-0.1-1.1-0.2-1.6-0.4s-1-0.4-1.4-0.6s-0.8-0.5-1-0.9C1.1,37.2,1,36.8,1,36.4v-7.6c0-0.4,0.1-0.8,0.4-1.2
			c0.3-0.3,0.6-0.6,1-0.8c0.4-0.2,0.9-0.4,1.4-0.6s1.1-0.3,1.6-0.4s1-0.1,1.5-0.2c0.5,0,0.9,0,1.2,0s0.7,0,1.2,0s1,0.1,1.5,0.2
			s1.1,0.2,1.6,0.4c0.5,0.2,1,0.3,1.4,0.6c0.4,0.2,0.8,0.5,1,0.8c0.3,0.3,0.4,0.7,0.4,1.2v7.6H15.4z"/>
		
			<linearGradient id="SVGID_6_" gradientUnits="userSpaceOnUse" x1="21.1" y1="26.7" x2="21.1" y2="2.2749" gradientTransform="matrix(1 0 0 -1 0 42)">
			<stop  offset="0" style="stop-color:#FFFFFF"/>
			<stop  offset="1" style="stop-color:#75CEEA"/>
		</linearGradient>
		<path class="st14" d="M28.2,36.4c0,0.5-0.1,0.9-0.4,1.2s-0.6,0.6-1,0.9c-0.4,0.2-0.9,0.5-1.4,0.6c-0.5,0.2-1.1,0.3-1.6,0.4
			c-0.5,0.1-1,0.2-1.5,0.2s-0.9,0.1-1.2,0.1c-0.3,0-0.7,0-1.2-0.1c-0.5,0-1-0.1-1.5-0.2c-0.5-0.1-1.1-0.2-1.6-0.4s-1-0.4-1.4-0.6
			s-0.8-0.5-1-0.9c-0.3-0.3-0.4-0.7-0.4-1.2V18.5c0-0.4,0.1-0.8,0.4-1.2c0.3-0.3,0.6-0.6,1-0.8c0.4-0.2,0.9-0.4,1.4-0.6
			c0.5-0.2,1.1-0.3,1.6-0.4c0.5-0.1,1-0.1,1.5-0.2c0.5,0,0.9,0,1.2,0c0.3,0,0.7,0,1.2,0s1,0.1,1.5,0.2c0.5,0.1,1.1,0.2,1.6,0.4
			c0.5,0.2,1,0.3,1.4,0.6c0.4,0.2,0.8,0.5,1,0.8c0.3,0.3,0.4,0.7,0.4,1.2V36.4z"/>
		
			<linearGradient id="SVGID_7_" gradientUnits="userSpaceOnUse" x1="33.9" y1="17.5411" x2="33.9" y2="4.0194" gradientTransform="matrix(1 0 0 -1 0 42)">
			<stop  offset="0" style="stop-color:#FFFFFF"/>
			<stop  offset="1" style="stop-color:#75CEEA"/>
		</linearGradient>
		<path class="st15" d="M41,36.4c0,0.5-0.1,0.9-0.4,1.2c-0.3,0.3-0.6,0.6-1,0.9c-0.4,0.2-0.9,0.5-1.4,0.6c-0.5,0.2-1.1,0.3-1.6,0.4
			c-0.5,0.1-1,0.2-1.5,0.2s-0.9,0.1-1.2,0.1s-0.7,0-1.2-0.1c-0.5,0-1-0.1-1.5-0.2c-0.5-0.1-1.1-0.2-1.6-0.4s-1-0.4-1.4-0.6
			s-0.8-0.5-1-0.9c-0.3-0.3-0.4-0.7-0.4-1.2v-11c0-0.4,0.1-0.8,0.4-1.2c0.3-0.3,0.6-0.6,1-0.8s0.9-0.4,1.4-0.6s1.1-0.3,1.6-0.4
			s1-0.1,1.5-0.2c0.5,0,0.9,0,1.2,0s0.7,0,1.2,0s1,0.1,1.5,0.2s1.1,0.2,1.6,0.4s1,0.3,1.4,0.6c0.4,0.2,0.8,0.5,1,0.8
			s0.4,0.7,0.4,1.2V36.4z"/>
		<ellipse class="st16" cx="8.2" cy="28.7" rx="6.4" ry="2.1"/>
		<g>
			<path class="st11" d="M15.4,36.4c0,0.5-0.1,0.9-0.4,1.2c-0.3,0.3-0.6,0.6-1,0.9c-0.4,0.2-0.9,0.5-1.4,0.6
				c-0.5,0.2-1.1,0.3-1.6,0.4c-0.5,0.1-1,0.2-1.5,0.2s-0.9,0.1-1.2,0.1s-0.7,0-1.2-0.1c-0.5,0-1-0.1-1.5-0.2
				c-0.5-0.1-1.1-0.2-1.6-0.4s-1-0.4-1.4-0.6s-0.8-0.5-1-0.9C1.1,37.2,1,36.8,1,36.4v-7.6c0-0.4,0.1-0.8,0.4-1.2
				c0.3-0.3,0.6-0.6,1-0.8c0.4-0.2,0.9-0.4,1.4-0.6s1.1-0.3,1.6-0.4s1-0.1,1.5-0.2c0.5,0,0.9,0,1.2,0s0.7,0,1.2,0s1,0.1,1.5,0.2
				s1.1,0.2,1.6,0.4c0.5,0.2,1,0.3,1.4,0.6c0.4,0.2,0.8,0.5,1,0.8c0.3,0.3,0.4,0.7,0.4,1.2v7.6H15.4z M8.2,27.1c-0.3,0-0.7,0-1,0
				c-0.4,0-0.7,0.1-1.1,0.1S5.4,27.3,5,27.4s-0.7,0.2-1,0.3c-0.1,0-0.2,0.1-0.3,0.1c-0.1,0.1-0.3,0.1-0.4,0.2
				c-0.2,0.1-0.3,0.2-0.4,0.3s-0.2,0.2-0.2,0.3s0.1,0.2,0.2,0.3s0.3,0.2,0.4,0.3c0.2,0.1,0.3,0.2,0.4,0.2C3.8,29.5,4,29.5,4,29.5
				c0.3,0.1,0.6,0.2,1,0.3c0.4,0.1,0.7,0.1,1.1,0.2c0.4,0,0.7,0.1,1.1,0.1s0.7,0,1,0s0.7,0,1,0S9.9,30,10.3,30
				c0.4,0,0.7-0.1,1.1-0.2c0.4-0.1,0.7-0.2,1-0.3c0.1,0,0.2-0.1,0.3-0.1c0.1-0.1,0.3-0.1,0.5-0.2s0.3-0.2,0.4-0.3
				c0.1-0.1,0.2-0.2,0.2-0.3s-0.1-0.2-0.2-0.3c-0.1-0.1-0.3-0.2-0.4-0.3c-0.2-0.1-0.3-0.2-0.5-0.2c-0.1-0.1-0.3-0.1-0.3-0.1
				c-0.3-0.1-0.7-0.2-1-0.3c-0.4-0.1-0.7-0.1-1.1-0.2c-0.4,0-0.7-0.1-1.1-0.1S8.5,27.1,8.2,27.1z M8.2,38.1c0.3,0,0.7,0,1,0
				c0.4,0,0.7-0.1,1.1-0.1c0.4-0.1,0.7-0.1,1.1-0.2c0.3-0.1,0.7-0.2,1-0.3c0.1,0,0.2-0.1,0.4-0.2c0.2-0.1,0.3-0.2,0.5-0.3
				c0.1-0.1,0.3-0.2,0.4-0.3c0.1-0.1,0.2-0.2,0.2-0.3v-5.5c-0.4,0.2-0.8,0.4-1.3,0.5s-1,0.3-1.5,0.3c-0.5,0.1-1,0.1-1.5,0.2
				c-0.5,0-1,0.1-1.4,0.1s-0.9,0-1.4-0.1c-0.5,0-1-0.1-1.5-0.2s-1-0.2-1.5-0.3C3.4,31.2,3,31,2.6,30.8v5.5c0,0.1,0.1,0.2,0.2,0.3
				S3,36.9,3.2,37c0.1,0.1,0.3,0.2,0.5,0.3s0.3,0.1,0.4,0.2c0.3,0.1,0.6,0.2,1,0.3S5.8,38,6.2,38c0.4,0.1,0.7,0.1,1.1,0.1
				C7.5,38.1,7.9,38.1,8.2,38.1z"/>
		</g>
		<ellipse class="st16" cx="21" cy="18.5" rx="6.4" ry="2.1"/>
		<g>
			<path class="st11" d="M28.2,36.4c0,0.5-0.1,0.9-0.4,1.2s-0.6,0.6-1,0.9c-0.4,0.2-0.9,0.5-1.4,0.6c-0.5,0.2-1.1,0.3-1.6,0.4
				c-0.5,0.1-1,0.2-1.5,0.2s-0.9,0.1-1.2,0.1c-0.3,0-0.7,0-1.2-0.1c-0.5,0-1-0.1-1.5-0.2c-0.5-0.1-1.1-0.2-1.6-0.4s-1-0.4-1.4-0.6
				s-0.8-0.5-1-0.9c-0.3-0.3-0.4-0.7-0.4-1.2V18.5c0-0.4,0.1-0.8,0.4-1.2c0.3-0.3,0.6-0.6,1-0.8c0.4-0.2,0.9-0.4,1.4-0.6
				c0.5-0.2,1.1-0.3,1.6-0.4c0.5-0.1,1-0.1,1.5-0.2c0.5,0,0.9,0,1.2,0c0.3,0,0.7,0,1.2,0s1,0.1,1.5,0.2c0.5,0.1,1.1,0.2,1.6,0.4
				c0.5,0.2,1,0.3,1.4,0.6c0.4,0.2,0.8,0.5,1,0.8c0.3,0.3,0.4,0.7,0.4,1.2V36.4z M21,16.9c-0.3,0-0.7,0-1,0c-0.4,0-0.7,0.1-1.1,0.1
				s-0.7,0.1-1.1,0.2s-0.7,0.2-1,0.3c-0.1,0-0.2,0.1-0.3,0.1c-0.1,0.1-0.3,0.1-0.4,0.2c-0.2,0.1-0.3,0.2-0.4,0.3
				c-0.1,0.1-0.2,0.2-0.2,0.3c0,0.1,0.1,0.2,0.2,0.3c0.1,0.1,0.3,0.2,0.4,0.3c0.2,0.1,0.3,0.2,0.4,0.2s0.3,0.1,0.3,0.1
				c0.3,0.1,0.6,0.2,1,0.3s0.7,0.1,1.1,0.2c0.4,0,0.7,0.1,1.1,0.1s0.7,0,1,0s0.7,0,1,0c0.4,0,0.7-0.1,1.1-0.1s0.7-0.1,1.1-0.2
				s0.7-0.2,1-0.3c0.1,0,0.2-0.1,0.3-0.1s0.3-0.1,0.5-0.2s0.3-0.2,0.4-0.3c0.1-0.1,0.2-0.2,0.2-0.3c0-0.1-0.1-0.2-0.2-0.3
				c-0.1-0.1-0.3-0.2-0.4-0.3c-0.2-0.1-0.3-0.2-0.5-0.2c-0.1-0.1-0.3-0.1-0.3-0.1c-0.3-0.1-0.7-0.2-1-0.3c-0.4-0.1-0.7-0.1-1.1-0.2
				c-0.4,0-0.7-0.1-1.1-0.1C21.7,16.9,21.3,16.9,21,16.9z M21,38.1c0.3,0,0.7,0,1,0c0.4,0,0.7-0.1,1.1-0.1c0.4-0.1,0.7-0.1,1.1-0.2
				c0.3-0.1,0.7-0.2,1-0.3c0.1,0,0.2-0.1,0.4-0.2c0.2-0.1,0.3-0.2,0.5-0.3c0.1-0.1,0.3-0.2,0.4-0.3s0.2-0.2,0.2-0.3V20.6
				c-0.4,0.2-0.8,0.4-1.3,0.5s-1,0.3-1.5,0.3c-0.5,0.1-1,0.1-1.5,0.2c-0.5,0-1,0.1-1.4,0.1s-0.9,0-1.4-0.1c-0.5,0-1-0.1-1.5-0.2
				s-1-0.2-1.5-0.3c-0.5-0.1-0.9-0.3-1.2-0.5v15.8c0,0.1,0.1,0.2,0.2,0.3c0.1,0.1,0.2,0.2,0.4,0.3c0.1,0.1,0.3,0.2,0.5,0.3
				s0.3,0.1,0.4,0.2c0.3,0.1,0.6,0.2,1,0.3S18.6,38,19,38c0.4,0.1,0.7,0.1,1.1,0.1C20.3,38.1,20.7,38.1,21,38.1z"/>
		</g>
		<ellipse class="st16" cx="33.8" cy="25.3" rx="6.4" ry="2.1"/>
		<g>
			<path class="st11" d="M41,36.4c0,0.5-0.1,0.9-0.4,1.2c-0.3,0.3-0.6,0.6-1,0.9c-0.4,0.2-0.9,0.5-1.4,0.6c-0.5,0.2-1.1,0.3-1.6,0.4
				c-0.5,0.1-1,0.2-1.5,0.2s-0.9,0.1-1.2,0.1s-0.7,0-1.2-0.1c-0.5,0-1-0.1-1.5-0.2c-0.5-0.1-1.1-0.2-1.6-0.4s-1-0.4-1.4-0.6
				s-0.8-0.5-1-0.9c-0.3-0.3-0.4-0.7-0.4-1.2v-11c0-0.4,0.1-0.8,0.4-1.2c0.3-0.3,0.6-0.6,1-0.8s0.9-0.4,1.4-0.6s1.1-0.3,1.6-0.4
				s1-0.1,1.5-0.2c0.5,0,0.9,0,1.2,0s0.7,0,1.2,0s1,0.1,1.5,0.2s1.1,0.2,1.6,0.4s1,0.3,1.4,0.6c0.4,0.2,0.8,0.5,1,0.8
				s0.4,0.7,0.4,1.2V36.4z M33.8,23.7c-0.3,0-0.7,0-1,0c-0.4,0-0.7,0.1-1.1,0.1S31,23.9,30.6,24s-0.7,0.2-1,0.3
				c-0.1,0-0.2,0.1-0.3,0.1s-0.3,0.1-0.4,0.2s-0.3,0.2-0.4,0.3s-0.2,0.2-0.2,0.3c0,0.1,0.1,0.2,0.2,0.3s0.3,0.2,0.4,0.3
				c0.2,0.1,0.3,0.2,0.4,0.2c0.1,0.1,0.3,0.1,0.3,0.1c0.3,0.1,0.6,0.2,1,0.3c0.4,0.1,0.7,0.1,1.1,0.2c0.4,0,0.7,0.1,1.1,0.1
				s0.7,0,1,0s0.7,0,1,0c0.4,0,0.7-0.1,1.1-0.1c0.4,0,0.7-0.1,1.1-0.2c0.4-0.1,0.7-0.2,1-0.3c0.1,0,0.2-0.1,0.3-0.1
				c0.1-0.1,0.3-0.1,0.5-0.2s0.3-0.2,0.4-0.3c0.1-0.1,0.2-0.2,0.2-0.3c0-0.1-0.1-0.2-0.2-0.3c-0.1-0.1-0.3-0.2-0.4-0.3
				c-0.2-0.1-0.3-0.2-0.5-0.2S38,24.3,38,24.3c-0.3-0.1-0.7-0.2-1-0.3c-0.4-0.1-0.7-0.1-1.1-0.2c-0.4,0-0.7-0.1-1.1-0.1
				C34.5,23.7,34.1,23.7,33.8,23.7z M33.8,38.1c0.3,0,0.7,0,1,0c0.4,0,0.7-0.1,1.1-0.1c0.4-0.1,0.7-0.1,1.1-0.2
				c0.3-0.1,0.7-0.2,1-0.3c0.1,0,0.2-0.1,0.4-0.2c0.2-0.1,0.3-0.2,0.5-0.3c0.1-0.1,0.3-0.2,0.4-0.3c0.1-0.1,0.2-0.2,0.2-0.3v-8.9
				c-0.4,0.2-0.8,0.4-1.3,0.5s-1,0.3-1.5,0.3c-0.5,0.1-1,0.1-1.5,0.2c-0.5,0-1,0.1-1.4,0.1s-0.9,0-1.4-0.1c-0.5,0-1-0.1-1.5-0.2
				s-1-0.2-1.5-0.3c-0.5-0.1-0.9-0.3-1.2-0.5v8.9c0,0.1,0.1,0.2,0.2,0.3s0.2,0.2,0.4,0.3c0.1,0.1,0.3,0.2,0.5,0.3s0.3,0.1,0.4,0.2
				c0.3,0.1,0.6,0.2,1,0.3s0.7,0.2,1.1,0.2c0.4,0.1,0.7,0.1,1.1,0.1C33.1,38.1,33.5,38.1,33.8,38.1z"/>
		</g>
		<polygon class="st7" points="18.5,9.1 14.6,6 19.5,6 21,1.3 22.5,6 27.4,6 23.5,9.1 25.1,14.2 21,11 16.9,14.2 		"/>
	</g>
</g>
<g id="Matchmaking" class="st0">
	
		<linearGradient id="SVGID_8_" gradientUnits="userSpaceOnUse" x1="21.4" y1="38.4" x2="21.4" y2="10.2" gradientTransform="matrix(1 0 0 -1 0 42)">
		<stop  offset="0" style="stop-color:#659AD2"/>
		<stop  offset="0.2179" style="stop-color:#5D96CF"/>
		<stop  offset="0.5514" style="stop-color:#488BC9"/>
		<stop  offset="0.8401" style="stop-color:#307FC1"/>
	</linearGradient>
	<path class="st17" d="M33,14.5c-0.2-6-5.2-10.9-11.3-10.9c-5.1,0-9.4,3.4-10.8,8c-5.3,0.3-9.5,4.7-9.5,10.1
		c0,5.6,4.5,10.1,10.1,10.1c4,0,17.4,0,21.2,0c4.8,0,8.7-3.9,8.7-8.7C41.4,18.4,37.6,14.6,33,14.5z"/>
	<g class="st2">
		<path class="st6" d="M29.5,25.7v-7.6c0-0.2,0-0.5-0.1-0.7S29.2,17,29,16.8s-0.3-0.3-0.6-0.4s-0.4-0.1-0.7-0.1h-2.5l1.5,1.5
			l-0.8,0.8L23,15.7l2.9-2.9l0.8,0.8l-1.5,1.5h2.5c0.4,0,0.8,0.1,1.1,0.2c0.4,0.2,0.7,0.4,0.9,0.6c0.3,0.3,0.5,0.6,0.6,0.9
			c0.2,0.4,0.2,0.7,0.2,1.1v7.6h-1V25.7z"/>
		<g>
			<path class="st6" d="M11.8,15.6v8.6c0,0.2,0,0.5,0.1,0.7s0.2,0.4,0.4,0.6s0.3,0.3,0.6,0.4C13.1,26,14,26,14.2,26h3.4L16,24.4
				l0.8-0.8l2.9,2.9l-2.9,2.9L16,28.5l1.5-1.5h-3.4c-0.4,0-1.4-0.1-1.7-0.2c-0.4-0.2-0.7-0.4-0.9-0.6c-0.3-0.3-0.5-0.6-0.6-0.9
				c-0.2-0.4-0.2-0.7-0.2-1.1v-8.6C10.7,15.6,11.8,15.6,11.8,15.6z"/>
		</g>
		<g>
			<path class="st6" d="M4.9,6.7L2.8,8.1l-1.3,3.1L2.4,16c0,0,2,2.3,2.1,2.3S5.8,18,5.8,18l3-2.5l5,0.1l2.6,1.6l1.4,1.2l2-0.7
				l1.2-3.1v-3.7l-1-2.8L16.8,6H6.2L4.9,6.7z"/>
			<g>
				<g>
					<path class="st7" d="M20,7.2c0.6,0.6,1,1.2,1.3,2c0.3,0.7,0.5,1.5,0.5,2.3c0,0.2,0,0.5,0,0.9c0,0.3,0,0.7-0.1,1.1
						c0,0.4-0.1,0.8-0.2,1.2s-0.2,0.8-0.3,1.3c-0.2,0.6-0.5,1.1-0.7,1.5c-0.3,0.4-0.6,0.7-0.9,0.9s-0.6,0.4-0.9,0.4
						c-0.3,0.1-0.6,0.1-0.9,0.1c-0.2,0-0.4,0-0.6-0.1s-0.4-0.2-0.6-0.3s-0.3-0.3-0.5-0.4c-0.2-0.2-0.3-0.3-0.5-0.5
						c-0.1-0.2-0.3-0.3-0.4-0.5c-0.1-0.2-0.3-0.3-0.5-0.4s-0.3-0.2-0.5-0.3c-0.2-0.1-0.4-0.1-0.6-0.1H9.2c-0.2,0-0.4,0-0.6,0.1
						s-0.3,0.2-0.5,0.3c-0.2,0.1-0.3,0.3-0.5,0.4c-0.1,0.2-0.3,0.3-0.4,0.5s-0.3,0.3-0.5,0.5s-0.3,0.3-0.5,0.4s-0.4,0.2-0.6,0.3
						C5.5,18.9,5.3,19,5.1,19c-0.3,0-0.6,0-0.9-0.1s-0.6-0.2-0.9-0.4S2.7,18,2.4,17.6s-0.5-1-0.7-1.6c-0.1-0.4-0.3-0.8-0.3-1.3
						c-0.1-0.4-0.2-0.8-0.2-1.2s-0.1-0.8-0.1-1.1s0-0.6,0-0.9c0-0.8,0.2-1.6,0.5-2.3s0.8-1.4,1.3-2c0.6-0.6,1.2-1,2-1.3
						c0.7-0.3,1.5-0.5,2.3-0.5h8.5c0.8,0,1.6,0.2,2.3,0.5S19.4,6.6,20,7.2z M19.8,15.6c0.1-0.4,0.2-0.8,0.3-1.2s0.1-0.8,0.2-1.2
						c0-0.4,0.1-0.7,0.1-1s0-0.5,0-0.7c0-0.7-0.1-1.3-0.4-1.9c-0.3-0.6-0.6-1.1-1-1.5c-0.4-0.4-0.9-0.8-1.5-1
						c-0.6-0.3-1.2-0.4-1.9-0.4H7.1c-0.7,0-1.3,0.1-1.9,0.4s-1.1,0.6-1.5,1c-0.4,0.5-0.7,1-1,1.5c-0.3,0.6-0.4,1.2-0.4,1.9
						c0,0.2,0,0.4,0,0.7s0,0.6,0.1,1c0,0.4,0.1,0.8,0.2,1.2c0.1,0.4,0.2,0.8,0.3,1.2c0.2,0.5,0.4,0.9,0.6,1.2s0.4,0.5,0.6,0.6
						s0.4,0.2,0.6,0.2s0.3,0,0.4,0c0.2,0,0.3-0.1,0.5-0.3c0.2-0.2,0.4-0.4,0.6-0.6s0.4-0.4,0.5-0.6c0.2-0.2,0.4-0.4,0.6-0.6
						c0.2-0.2,0.5-0.3,0.8-0.4c0.3-0.1,0.6-0.2,1-0.2l0,0h4.5c0.4,0,0.7,0.1,1,0.2s0.6,0.3,0.8,0.4c0.2,0.2,0.5,0.4,0.6,0.6
						c0.2,0.2,0.4,0.4,0.5,0.6c0.2,0.2,0.4,0.4,0.6,0.6s0.4,0.3,0.5,0.3s0.2,0,0.4,0c0.2,0,0.4-0.1,0.6-0.2s0.4-0.3,0.6-0.6
						C19.4,16.5,19.6,16.1,19.8,15.6z M6.4,10.8h1.4v1.4H6.4v1.4H5.1v-1.4H3.7v-1.4h1.4V9.5h1.4L6.4,10.8L6.4,10.8z M14.9,9.5
						c0.2,0,0.4,0,0.5,0.1c0.2,0.1,0.3,0.2,0.4,0.3c0.1,0.1,0.2,0.3,0.3,0.4c0.1,0.2,0.1,0.3,0.1,0.5s0,0.4-0.1,0.5
						c-0.1,0.2-0.2,0.3-0.3,0.4c-0.1,0.1-0.3,0.2-0.4,0.3c-0.2,0.1-0.3,0.1-0.5,0.1s-0.4,0-0.5-0.1c-0.2-0.1-0.3-0.2-0.4-0.3
						c-0.1-0.1-0.2-0.3-0.3-0.4c-0.1-0.2-0.1-0.3-0.1-0.5s0-0.4,0.1-0.5c0.1-0.2,0.2-0.3,0.3-0.4c0.1-0.1,0.3-0.2,0.4-0.3
						C14.6,9.5,14.8,9.5,14.9,9.5z M17.7,12.2c0.2,0,0.4,0,0.5,0.1c0.2,0.1,0.3,0.2,0.4,0.3s0.2,0.3,0.3,0.4
						c0.1,0.2,0.1,0.3,0.1,0.5s0,0.4-0.1,0.5c-0.1,0.2-0.2,0.3-0.3,0.4c-0.1,0.1-0.3,0.2-0.4,0.3s-0.3,0.1-0.5,0.1s-0.4,0-0.5-0.1
						s-0.3-0.2-0.4-0.3s-0.2-0.3-0.3-0.4c-0.1-0.2-0.1-0.3-0.1-0.5s0-0.4,0.1-0.5c0.1-0.2,0.2-0.3,0.3-0.4c0.1-0.1,0.3-0.2,0.4-0.3
						C17.3,12.2,17.5,12.2,17.7,12.2z"/>
				</g>
			</g>
		</g>
		<g>
			<path class="st6" d="M20.3,31.5l2.7-6.4l0.5-1.3l2.9-0.5l2.9,0.6h3.4l1.2-0.6l2.9,0.7l1,1.4c0,0,2.3,5.4,2.6,8.8
				c0,0.1-0.7,2.4-2.3,2.4c-1.2,0-3.5-3.6-5.2-3.6c-1.8,0-3.7,0-5.5,0c-1.7,0-4.4,4-5.6,3.9C19.2,36.7,20.3,31.5,20.3,31.5z"/>
			<path class="st7" d="M37.6,24.4c0.1,0.1,0.2,0.2,0.3,0.3c0.1,0.1,0.2,0.3,0.3,0.4c0.2,0.5,0.5,1,0.7,1.5s0.4,1,0.6,1.5
				c0.3,0.6,0.5,1.3,0.7,2s0.4,1.3,0.5,2c0.1,0.3,0.1,0.6,0.1,0.9c0,0.3,0.1,0.6,0.1,0.9c0,0.4,0,0.8-0.1,1.2s-0.3,0.8-0.5,1.1
				c-0.1,0.2-0.2,0.3-0.4,0.5s-0.3,0.3-0.5,0.4c-0.2,0.1-0.4,0.2-0.6,0.3c-0.2,0.1-0.4,0.1-0.6,0.1c-0.2,0-0.5-0.1-0.7-0.3
				c-0.3-0.2-0.5-0.4-0.8-0.7s-0.5-0.5-0.8-0.8c-0.2-0.3-0.4-0.5-0.6-0.7c-0.2-0.2-0.3-0.4-0.5-0.6c-0.2-0.2-0.4-0.4-0.5-0.5
				L34,33.7c-0.1-0.1-0.3-0.2-0.5-0.2s-0.3-0.1-0.5-0.1s-0.3,0-0.5,0s-0.3,0-0.5,0h-2h-2c-0.2,0-0.3,0-0.5,0s-0.3,0-0.5,0
				s-0.3,0.1-0.5,0.1s-0.3,0.1-0.4,0.2l-0.3,0.2c-0.2,0.1-0.4,0.3-0.5,0.5c-0.2,0.2-0.3,0.4-0.5,0.6c-0.1,0.2-0.3,0.4-0.6,0.7
				c-0.2,0.3-0.5,0.5-0.8,0.8s-0.5,0.5-0.8,0.7s-0.5,0.3-0.7,0.3s-0.4,0-0.6-0.1s-0.4-0.2-0.6-0.3s-0.4-0.3-0.5-0.4
				c-0.2-0.2-0.3-0.3-0.4-0.5c-0.2-0.4-0.4-0.7-0.5-1.1c-0.1-0.4-0.1-0.8-0.1-1.2c0-0.3,0-0.6,0.1-0.9c0-0.3,0.1-0.6,0.1-0.9
				c0.1-0.3,0.1-0.7,0.2-1.1s0.2-0.8,0.4-1.2c0.1-0.4,0.3-0.8,0.5-1.3c0.2-0.4,0.3-0.9,0.5-1.3s0.3-0.8,0.5-1.2
				c0.2-0.4,0.3-0.7,0.5-1c0.1-0.1,0.2-0.3,0.3-0.4c0.1-0.1,0.2-0.2,0.3-0.3c0-0.1,0-0.2,0-0.3c0-0.1,0-0.2,0-0.2
				c0-0.1,0-0.1,0.1-0.2c0-0.1,0.1-0.1,0.2-0.2c0.1,0,0.2-0.1,0.4-0.2c0.2-0.1,0.4-0.1,0.6-0.2s0.4-0.1,0.6-0.2
				c0.2,0,0.3-0.1,0.4-0.1c0.3-0.1,0.5-0.1,0.8-0.1s0.5,0,0.8,0c0.1,0,0.2,0,0.4,0c0.1,0,0.2,0,0.3,0.1l0,0c0.2,0.1,0.3,0.2,0.5,0.3
				c0.2,0.1,0.3,0.2,0.5,0.3H32c0.2-0.1,0.3-0.2,0.4-0.3c0.1-0.1,0.2-0.1,0.4-0.2c0.1-0.1,0.2-0.1,0.4-0.1c0.1,0,0.3-0.1,0.5-0.1
				c0.3,0,0.5,0,0.8,0s0.5,0.1,0.8,0.1c0.1,0,0.2,0.1,0.4,0.1s0.4,0.1,0.6,0.2c0.2,0.1,0.4,0.1,0.6,0.2c0.2,0.1,0.3,0.1,0.4,0.2
				c0.2,0.1,0.3,0.3,0.3,0.4C37.6,24,37.6,24.2,37.6,24.4z M38.3,36.2c0.3-0.1,0.5-0.2,0.6-0.3c0.2-0.2,0.3-0.3,0.4-0.5
				c0.1-0.2,0.2-0.4,0.2-0.7c0-0.2,0.1-0.5,0.1-0.7c0-0.3,0-0.6,0-0.8c0-0.3-0.1-0.6-0.1-0.8c-0.1-0.7-0.3-1.5-0.6-2.2
				s-0.6-1.4-0.8-2.1c-0.2-0.4-0.3-0.8-0.5-1.1c-0.2-0.4-0.3-0.8-0.5-1.1c-0.1-0.1-0.1-0.2-0.2-0.2c-0.1-0.1-0.2-0.1-0.2-0.2
				c-0.1-0.1-0.2-0.1-0.2-0.2c-0.1-0.1-0.1-0.2-0.1-0.3v-0.2c-0.4-0.1-0.8-0.3-1.2-0.3c-0.4-0.1-0.8-0.1-1.3-0.1h-0.1h-0.1
				c-0.3,0.2-0.5,0.3-0.6,0.4s-0.3,0.1-0.4,0.2c-0.1,0-0.3,0.1-0.4,0.1c-0.1,0-0.4,0-0.6,0H29c-0.3,0-0.5,0-0.6,0s-0.3,0-0.4-0.1
				c-0.1,0-0.3-0.1-0.4-0.2s-0.3-0.2-0.6-0.4h-0.1h-0.1c-0.4,0-0.8,0-1.3,0.1c-0.4,0.1-0.8,0.2-1.2,0.3c0,0.2,0,0.4-0.1,0.5
				c0,0.1-0.1,0.2-0.3,0.3c-0.1,0-0.2,0.1-0.2,0.2c-0.1,0.1-0.1,0.1-0.2,0.2c-0.2,0.4-0.4,0.7-0.5,1.1c-0.2,0.4-0.3,0.8-0.5,1.1
				c-0.3,0.7-0.6,1.4-0.8,2.1c-0.3,0.7-0.5,1.5-0.6,2.2C21,32.8,21,33,21,33.3s0,0.6,0,0.8s0,0.5,0.1,0.7c0,0.2,0.1,0.5,0.2,0.7
				s0.2,0.4,0.4,0.5s0.4,0.3,0.6,0.3c0.1-0.1,0.2-0.2,0.4-0.3c0.2-0.2,0.4-0.3,0.6-0.6c0.2-0.2,0.4-0.4,0.5-0.6
				c0.2-0.2,0.3-0.3,0.4-0.5c0.1-0.1,0.2-0.2,0.3-0.3c0.1-0.1,0.2-0.3,0.4-0.4c0.1-0.1,0.3-0.3,0.4-0.4c0.1-0.1,0.2-0.2,0.3-0.3
				c0,0,0.1,0,0.1-0.1c0,0,0.1,0,0.1-0.1c0.2-0.1,0.4-0.3,0.6-0.3c0.2-0.1,0.4-0.1,0.7-0.2c0.2,0,0.5-0.1,0.7-0.1s0.5,0,0.7,0h2h2
				c0.2,0,0.5,0,0.7,0s0.5,0,0.7,0.1s0.5,0.1,0.7,0.2c0.2,0.1,0.4,0.2,0.6,0.3c0,0,0.1,0,0.1,0.1c0,0,0.1,0,0.1,0.1
				c0.1,0.1,0.2,0.1,0.3,0.3c0.1,0.1,0.2,0.2,0.4,0.4c0.1,0.1,0.2,0.3,0.4,0.4c0.1,0.1,0.2,0.2,0.3,0.3s0.2,0.3,0.4,0.5
				s0.3,0.4,0.5,0.6c0.2,0.2,0.4,0.4,0.5,0.5C38.1,36,38.2,36.2,38.3,36.2z"/>
			<circle class="st7" cx="30.2" cy="26.7" r="0.9"/>
		</g>
	</g>
</g>
<g>
	<polygon class="st3" points="5.7,24.5 10.7,22.5 10.7,17.6 5.7,16 	"/>
	<path class="st4" d="M1,16.8v6.5l4.7,1.2V16L1,16.8z"/>
	<path class="st5" d="M1,16.8v6.5l4.7,1.2V16L1,16.8z M1.5,17.2L2.9,17v6.2l-1.4-0.3V17.2z M5.2,23.8l-1.7-0.4v-6.4l1.7-0.2V23.8z"
		/>
</g>
<g>
	<polygon class="st3" points="13.9,26.3 20.9,23.7 20.9,16.7 13.9,14.6 	"/>
	<path class="st4" d="M7.4,15.6v9.1l6.6,1.6V14.6L7.4,15.6z"/>
	<path class="st5" d="M7.4,15.6v9.1l6.6,1.6V14.6L7.4,15.6z M8.1,16.2l2-0.3v8.7l-2-0.5V16.2z M13.2,25.4l-2.4-0.5v-9l2.4-0.3V25.4z
		"/>
</g>
<g>
	<polygon class="st3" points="24.7,28.9 34.2,25.3 34.2,15.9 24.7,12.9 	"/>
	<path class="st4" d="M15.8,14.4v12.3l8.9,2.2v-16L15.8,14.4z"/>
	<path class="st5" d="M15.8,14.4v12.3l8.9,2.2v-16L15.8,14.4z M16.7,15.2l2.7-0.4v11.8L16.7,26V15.2z M23.7,27.6l-3.2-0.7V14.7
		l3.2-0.5V27.6z"/>
</g>
<g>
	<path class="st6" d="M28,27.4l1.7-4l0.3-0.8l1.8-0.3l1.8,0.4h2.1l0.7-0.4l1.8,0.4l0.7,0.9c0,0,1.5,3.4,1.6,5.5c0,0-0.4,1.5-1.4,1.5
		c-0.8,0-2.2-2.3-3.3-2.3c-1.1,0-2.3,0-3.5,0c-1,0-2.8,2.5-3.5,2.5C27.3,30.7,28,27.4,28,27.4z"/>
	<g>
		<circle class="st7" cx="34.2" cy="24.4" r="0.6"/>
		<path class="st7" d="M41,28.1c-0.1-1.1-1.2-3.6-1.5-4.3c-0.3-0.6-0.6-0.9-0.6-0.9s0-0.3-0.1-0.5c-0.1-0.2-0.6-0.3-1.2-0.4
			c-0.6-0.2-1.1-0.1-1.4-0.1s-0.8,0.4-0.8,0.4h-0.8h-0.9H33c0,0-0.5-0.4-0.8-0.4c-0.4,0-0.9,0-1.4,0.1c-0.6,0.2-1.1,0.3-1.2,0.4
			c-0.1,0.2-0.1,0.5-0.1,0.5s-0.3,0.3-0.6,0.9s-1.4,3.1-1.5,4.3c-0.1,1.1-0.1,1.7,0.3,2.3c0.4,0.6,1.1,0.8,1.4,0.8s1.2-0.9,1.6-1.4
			c0.4-0.5,0.9-1.1,1.7-1.2c0.4,0,1.1,0,1.7,0c0.6,0,1.3,0,1.7,0c0.8,0,1.3,0.7,1.7,1.2c0.4,0.5,1.2,1.4,1.6,1.4s1-0.2,1.4-0.8
			C41,29.8,41,29.2,41,28.1z M40,29.8c-0.3,0.5-0.7,0.6-0.7,0.6s-0.5-0.3-0.7-0.7c-0.3-0.3-0.7-1-1.4-1.5s-1.6-0.4-1.6-0.4l-0.7,0
			l0,0l-0.7,0l-0.7,0l0,0l-0.7,0c0,0-1-0.1-1.6,0.4c-0.7,0.5-1.1,1.1-1.4,1.5c-0.3,0.3-0.7,0.7-0.7,0.7s-0.4,0-0.7-0.6
			s-0.2-1.4,0.1-2.5c0.3-1.1,0.8-2.2,1.1-2.9c0.3-0.7,0.5-0.8,0.6-1c0.1-0.1,0.2-0.2,0.2-0.5c0,0,0.8-0.3,1.7-0.3
			c0,0,0.3,0.2,0.6,0.3c0.2,0.1,1,0.1,1.5,0.1c0.5,0,1.3,0,1.5-0.1c0.3-0.1,0.6-0.3,0.6-0.3c0.9,0,1.7,0.3,1.7,0.3
			c0,0.3,0.1,0.3,0.2,0.5c0.1,0.1,0.3,0.3,0.6,1c0.3,0.7,0.8,1.8,1.1,2.9C40.2,28.5,40.3,29.3,40,29.8z"/>
	</g>
</g>
</svg>
